<svg width="146" height="40" viewBox="0 0 146 40" fill="none" xmlns="http://www.w3.org/2000/svg">
<path d="M50.5747 19.624C51.1706 19.96 52.0219 20.2557 53.1285 20.5156C54.2396 20.7755 55.3731 20.9054 56.538 20.9054C57.7029 20.9054 58.7199 20.762 59.6742 20.4798C60.6285 20.1975 61.4529 19.7808 62.1339 19.2387C62.8149 18.6966 63.3525 18.047 63.7423 17.2853C64.1276 16.5237 64.3247 15.6634 64.3247 14.7091C64.3247 13.5487 63.9798 12.5138 63.2943 11.6088C62.6088 10.7038 61.4663 9.99588 59.8669 9.48065L56.7307 8.47259C55.5434 8.0828 54.7324 7.67957 54.2934 7.25395C53.8543 6.82832 53.6348 6.30413 53.6348 5.68585C53.6348 4.78083 53.9842 4.12223 54.6832 3.71004C55.3776 3.29785 56.3633 3.08728 57.6267 3.08728C59.1993 3.08728 60.624 3.37402 61.8875 3.93854C62.2728 4.11775 62.5595 4.21183 62.7387 4.21183C63.0747 4.21183 63.2405 3.97886 63.2405 3.51291V2.469C63.2405 2.15986 63.1778 1.91345 63.0479 1.73423C62.9179 1.55054 62.6984 1.37133 62.3893 1.19212C62.1563 1.06667 61.8471 0.936744 61.4574 0.806816C61.0676 0.676887 60.6509 0.5604 60.1984 0.457353C59.7459 0.349826 59.271 0.269181 58.7647 0.206457C58.2584 0.139253 57.7611 0.107891 57.2728 0.107891C56.2916 0.107891 55.3597 0.237819 54.4815 0.493196C53.6034 0.753052 52.8373 1.13388 52.1787 1.63567C51.5201 2.14194 50.9914 2.74678 50.5927 3.45466C50.1894 4.16703 49.9923 4.98244 49.9923 5.91434C49.9923 7.07474 50.3597 8.14552 51.0989 9.13119C51.8337 10.1124 53.012 10.8606 54.6428 11.3758L57.8552 12.3839C58.9394 12.7468 59.6832 13.1321 60.0819 13.5443C60.4806 13.9609 60.6823 14.4717 60.6823 15.0944C60.6823 15.995 60.3014 16.6939 59.5398 17.1867C58.7781 17.6751 57.7029 17.9215 56.305 17.9215C55.4269 17.9215 54.5488 17.8319 53.6706 17.6527C52.7925 17.469 51.9815 17.2136 51.2333 16.8776C51.0004 16.7746 50.8122 16.6984 50.6733 16.6491C50.5299 16.5953 50.3955 16.5729 50.2656 16.5729C49.9296 16.5729 49.7638 16.8014 49.7638 17.2674V18.3919C49.7638 18.6025 49.8086 18.8086 49.8982 19.0147C49.9878 19.2208 50.2163 19.4269 50.5747 19.633" fill="white"/>
<path d="M13.1417 8.87592C12.3263 8.75943 11.5467 8.70119 10.7985 8.70119C8.527 8.70119 6.71696 9.27466 5.37736 10.4261C4.03327 11.573 3.36571 13.0919 3.36571 14.9781C3.36571 16.7567 3.90782 18.1815 4.99205 19.2388C6.07628 20.2962 7.54582 20.8248 9.40962 20.8248C12.0171 20.8248 14.1856 19.8033 15.915 17.7648C16.148 18.2576 16.372 18.6922 16.5915 19.0641C16.8111 19.4404 17.0754 19.7809 17.3845 20.0901C17.5906 20.2962 17.8102 20.4037 18.0431 20.4037C18.2268 20.4037 18.4195 20.3365 18.6256 20.211L20.0189 19.2791C20.3012 19.0686 20.4446 18.8535 20.4446 18.6205C20.4446 18.4682 20.3908 18.298 20.2922 18.1187C19.9786 17.5498 19.7412 17.0211 19.5754 16.5327C19.4051 16.0444 19.3245 15.3813 19.3245 14.5569V7.35262C19.3245 4.9243 18.7107 3.10979 17.4831 1.90907C16.251 0.703874 14.3245 0.103516 11.6901 0.103516C10.4759 0.103516 9.32897 0.246885 8.24026 0.529143C7.15603 0.815881 6.22861 1.1519 5.45352 1.53721C5.1399 1.68954 4.93381 1.84635 4.83076 2.00316C4.72772 2.15549 4.67395 2.41534 4.67395 2.77377V3.858C4.67395 4.32395 4.83076 4.55692 5.1399 4.55692C5.21607 4.55692 5.33256 4.539 5.48937 4.49868C5.64618 4.46283 5.90155 4.36427 6.26446 4.20746C7.03955 3.89384 7.83256 3.64294 8.64797 3.45029C9.46338 3.25764 10.2564 3.15907 11.0315 3.15907C12.734 3.15907 13.9347 3.49957 14.6336 4.18506C15.3326 4.87054 15.682 6.04886 15.682 7.72896V9.35531C14.8039 9.14921 13.9571 8.98792 13.1462 8.87144M15.682 12.7648C15.682 13.513 15.6103 14.1537 15.4714 14.6824C15.3281 15.211 15.0772 15.686 14.7188 16.0981C14.1229 16.7702 13.4284 17.2406 12.6265 17.5094C11.8245 17.7827 11.0628 17.9171 10.3415 17.9171C9.33345 17.9171 8.55836 17.6528 8.02073 17.1241C7.47861 16.5955 7.20532 15.8114 7.20532 14.7809C7.20532 13.6743 7.56822 12.8186 8.28955 12.2272C9.01087 11.6313 10.1085 11.3356 11.5781 11.3356C12.2501 11.3356 12.9401 11.3804 13.6524 11.47C14.3603 11.5596 15.0369 11.6806 15.6865 11.8374V12.7693L15.682 12.7648Z" fill="white"/>
<path d="M26.7928 19.2344C26.9227 19.6734 27.0751 19.9646 27.2588 20.1035C27.4425 20.2469 27.7247 20.3141 28.11 20.3141H30.0052C30.4174 20.3141 30.7131 20.2379 30.8968 20.0856C31.076 19.9288 31.2193 19.6331 31.3224 19.194L34.7319 4.94224L38.1772 19.194C38.2803 19.6331 38.4236 19.9288 38.6029 20.0856C38.7821 20.2379 39.0778 20.3141 39.4944 20.3141H41.3896C41.7794 20.3141 42.0616 20.2424 42.2408 20.1035C42.4245 19.9646 42.5769 19.6734 42.7068 19.2344L48.0518 2.11518C48.1324 1.88669 48.1817 1.703 48.2086 1.57307C48.231 1.44314 48.2444 1.33113 48.2444 1.2236C48.2444 0.865182 48.0652 0.68149 47.7023 0.68149H45.6503C45.2337 0.68149 44.9469 0.753175 44.7812 0.892064C44.6109 1.03543 44.4631 1.32665 44.3376 1.76124L40.5025 16.5955L37.0168 1.76124C36.9138 1.32665 36.7704 1.03095 36.5912 0.892064C36.412 0.753175 36.1163 0.68149 35.7041 0.68149H33.9209C33.5088 0.68149 33.2086 0.753175 33.0294 0.892064C32.8457 1.03543 32.7068 1.32665 32.6037 1.76124L29.1539 16.4028L25.4398 1.76572C25.3098 1.33113 25.162 1.03543 24.9962 0.896544C24.826 0.757655 24.5392 0.68597 24.1226 0.68597H21.9541C21.5912 0.68597 21.412 0.869662 21.412 1.22809C21.412 1.3849 21.4747 1.68059 21.6046 2.11966L26.7928 19.2388V19.2344Z" fill="white"/>
<path d="M59.6692 29.9601C51.5016 33.4278 42.6217 35.1034 34.5437 35.1034C22.5724 35.1034 10.9774 31.8194 1.60915 26.3624C0.784781 25.8875 0.179942 26.7298 0.860946 27.3436C9.54822 35.1885 21.0312 39.8973 33.7776 39.8973C42.8726 39.8973 53.4416 37.0389 60.7265 31.6626C61.9317 30.771 60.9013 29.4359 59.6692 29.9601Z" fill="white"/>
<path d="M55.0682 26.9315C54.4275 27.3796 54.5395 28.0023 55.2519 27.9172C57.5996 27.6349 62.8281 27.0077 63.76 28.1994C64.6918 29.3957 62.7205 34.3106 61.8424 36.5104C61.5781 37.1735 62.1515 37.4468 62.7519 36.9405C66.6587 33.6699 67.6712 26.8195 66.8693 25.8294C66.0763 24.8482 59.2393 24.0059 55.0682 26.9315Z" fill="white"/>
<path d="M84.3785 15.7352C84.2037 15.7352 84.1141 15.6456 84.1141 15.4709V3.51747C84.1141 3.34274 84.2037 3.25313 84.3785 3.25313H84.7145C84.9027 3.25313 85.0012 3.34274 85.0147 3.51747L85.0863 4.23879C85.624 3.80421 86.1482 3.48611 86.6634 3.28897C87.1742 3.09184 87.7028 2.98879 88.2405 2.98879C89.3785 2.98879 90.2745 3.3965 90.9331 4.21191C91.5872 5.0318 91.9143 6.1474 91.9143 7.56765C91.9143 8.9879 91.5693 10.1617 90.8749 11.0175C90.1804 11.8732 89.253 12.2988 88.0747 12.2988C86.9949 12.2988 86.0093 11.9001 85.1177 11.1026V15.4664C85.1177 15.6411 85.0281 15.7307 84.8534 15.7307H84.3785V15.7352ZM87.9716 11.3893C88.9304 11.3893 89.6562 11.0757 90.1446 10.444C90.6329 9.81675 90.8794 8.88037 90.8794 7.63485C90.8794 5.14829 89.934 3.90277 88.0433 3.90277C87.0711 3.90277 86.0944 4.27912 85.1222 5.0318V10.1886C85.6016 10.6008 86.072 10.901 86.529 11.0981C86.986 11.2908 87.4699 11.3893 87.9761 11.3893" fill="white"/>
<path d="M96.278 12.3034C95.4671 12.3034 94.8264 12.0749 94.3515 11.609C93.8766 11.143 93.6391 10.5247 93.6391 9.74966C93.6391 8.89393 93.9348 8.2174 94.5172 7.72457C95.1042 7.23174 95.9017 6.98532 96.9142 6.98532C97.6982 6.98532 98.5405 7.11973 99.4321 7.39303V5.91454C99.4321 5.19769 99.2619 4.68694 98.9214 4.37332C98.5809 4.06418 98.0163 3.90737 97.2323 3.90737C96.4482 3.90737 95.5746 4.05522 94.6606 4.34643C94.5531 4.38228 94.4635 4.4002 94.3963 4.4002C94.2798 4.4002 94.2215 4.32403 94.2215 4.1717V3.88945C94.2215 3.79536 94.2395 3.72367 94.2753 3.66991C94.3111 3.61615 94.3739 3.57134 94.4545 3.5355C95.3819 3.1726 96.3586 2.99339 97.3936 2.99339C98.4285 2.99339 99.1902 3.20844 99.6875 3.64303C100.189 4.07762 100.436 4.73174 100.436 5.61436V11.8464C100.436 12.0256 100.346 12.1108 100.171 12.1108H99.7995C99.6248 12.1108 99.5307 12.0212 99.5172 11.8464L99.45 11.0893C98.4375 11.9002 97.3846 12.3034 96.2825 12.3034M96.4214 11.3894C96.8649 11.3894 97.3488 11.2998 97.8685 11.1161C98.3837 10.9369 98.9079 10.6816 99.4366 10.3545V8.1502C98.6481 7.93962 97.8864 7.83658 97.1472 7.83658C95.5029 7.83658 94.683 8.4683 94.683 9.73622C94.683 10.2783 94.8309 10.686 95.1221 10.9728C95.4178 11.2506 95.8524 11.3939 96.4258 11.3939" fill="white"/>
<path d="M103.411 12.1063C103.236 12.1063 103.147 12.0167 103.147 11.8419V3.51755C103.147 3.34282 103.236 3.25321 103.411 3.25321H103.747C103.935 3.25321 104.034 3.34282 104.047 3.51755L104.137 4.53905C104.58 4.04622 105.019 3.69676 105.445 3.49066C105.875 3.28457 106.359 3.18152 106.897 3.18152C107.085 3.18152 107.237 3.18601 107.354 3.19945C107.528 3.20841 107.618 3.30697 107.618 3.4817V3.92077C107.618 3.97006 107.6 4.01486 107.564 4.0507C107.528 4.09102 107.479 4.11342 107.425 4.11342C107.331 4.11342 107.242 4.11342 107.161 4.10446C107.076 4.09998 106.955 4.0955 106.789 4.0955C106.251 4.0955 105.772 4.19855 105.355 4.39568C104.939 4.59282 104.535 4.91988 104.15 5.36342V11.8419C104.15 12.0211 104.061 12.1063 103.886 12.1063H103.411Z" fill="white"/>
<path d="M112.282 12.2138C111.587 12.2138 111.063 12.0256 110.7 11.6582C110.333 11.2908 110.153 10.7532 110.153 10.0498V4.1358H108.765C108.585 4.1358 108.5 4.04619 108.5 3.87146V3.69673C108.5 3.60265 108.514 3.53096 108.554 3.48616C108.59 3.43688 108.661 3.40999 108.765 3.39655L110.189 3.27558L110.315 0.954796C110.324 0.86071 110.351 0.793506 110.391 0.753183C110.431 0.712861 110.494 0.690459 110.579 0.690459H110.897C111.076 0.690459 111.161 0.780065 111.161 0.954796V3.26214H113.715C113.89 3.26214 113.98 3.35175 113.98 3.52648V3.88042C113.98 4.05963 113.89 4.14476 113.715 4.14476H111.161V10.0095C111.161 10.4888 111.265 10.8293 111.471 11.0265C111.681 11.2281 112.017 11.3267 112.501 11.3267C112.842 11.3267 113.142 11.2998 113.402 11.2371C113.527 11.2147 113.63 11.1923 113.711 11.1788C113.787 11.1609 113.841 11.1519 113.877 11.1519C114.006 11.1519 114.074 11.2236 114.074 11.3625V11.6268C114.074 11.8285 114.006 11.9494 113.877 11.9942C113.42 12.151 112.895 12.2227 112.295 12.2227" fill="white"/>
<path d="M116.188 12.1062C116.014 12.1062 115.924 12.0166 115.924 11.8418V3.51747C115.924 3.34274 116.014 3.25313 116.188 3.25313H116.542C116.731 3.25313 116.829 3.34274 116.843 3.51747L116.914 4.27464C117.488 3.86245 118.093 3.54435 118.729 3.32482C119.361 3.10528 119.979 2.98879 120.575 2.98879C121.43 2.98879 122.085 3.21729 122.537 3.6698C122.99 4.12231 123.214 4.78987 123.214 5.668V11.8463C123.214 12.0255 123.124 12.1107 122.949 12.1107H122.474C122.295 12.1107 122.206 12.0211 122.206 11.8463V6.09363C122.206 5.33198 122.062 4.77643 121.771 4.42697C121.475 4.08198 121.009 3.90725 120.36 3.90725C119.186 3.90725 118.043 4.2836 116.928 5.0318V11.8418C116.928 12.0211 116.838 12.1062 116.663 12.1062H116.188Z" fill="white"/>
<path d="M129.674 12.3705C128.276 12.3705 127.227 11.9762 126.524 11.1832C125.821 10.3902 125.467 9.21191 125.467 7.65277C125.467 6.17428 125.821 5.02732 126.528 4.21191C127.241 3.3965 128.231 2.98879 129.512 2.98879C130.579 2.98879 131.399 3.29793 131.968 3.90277C132.532 4.51657 132.819 5.39023 132.819 6.52822C132.819 6.99865 132.792 7.35259 132.747 7.58557C132.711 7.7603 132.613 7.84991 132.447 7.84991H126.479C126.488 9.08198 126.761 9.99148 127.286 10.5784C127.814 11.1653 128.63 11.4565 129.736 11.4565C130.579 11.4565 131.385 11.3132 132.147 11.0175C132.299 10.9592 132.407 10.9279 132.465 10.9279C132.514 10.9279 132.554 10.9458 132.586 10.9861C132.622 11.0264 132.64 11.0802 132.64 11.1384V11.4028C132.64 11.5909 132.572 11.7164 132.442 11.7746C131.596 12.1734 130.668 12.3705 129.66 12.3705M131.824 7.03897C131.833 6.8732 131.842 6.68055 131.842 6.45654C131.842 5.61424 131.632 4.97356 131.224 4.53897C130.812 4.10887 130.207 3.88933 129.409 3.88933C127.554 3.88933 126.573 4.93772 126.47 7.03897H131.824Z" fill="white"/>
<path d="M135.306 12.1063C135.131 12.1063 135.042 12.0167 135.042 11.8419V3.51755C135.042 3.34282 135.131 3.25321 135.306 3.25321H135.642C135.83 3.25321 135.929 3.34282 135.942 3.51755L136.032 4.53905C136.475 4.04622 136.914 3.69676 137.34 3.49066C137.77 3.28457 138.254 3.18152 138.792 3.18152C138.98 3.18152 139.132 3.18601 139.249 3.19945C139.423 3.20841 139.513 3.30697 139.513 3.4817V3.92077C139.513 3.97006 139.495 4.01486 139.459 4.0507C139.423 4.09102 139.374 4.11342 139.32 4.11342C139.226 4.11342 139.136 4.11342 139.056 4.10446C138.971 4.09998 138.85 4.0955 138.684 4.0955C138.146 4.0955 137.667 4.19855 137.25 4.39568C136.834 4.59282 136.43 4.91988 136.045 5.36342V11.8419C136.045 12.0211 135.955 12.1063 135.781 12.1063H135.306Z" fill="white"/>
<path d="M84.3785 31.6626C84.2037 31.6626 84.1141 31.573 84.1141 31.3982V23.0739C84.1141 22.8991 84.2037 22.8095 84.3785 22.8095H84.7324C84.9206 22.8095 85.0191 22.8991 85.0326 23.0739L85.1043 23.831C85.6777 23.4189 86.2826 23.1008 86.9143 22.8812C87.546 22.6617 88.1643 22.5452 88.7602 22.5452C89.6159 22.5452 90.27 22.7737 90.7225 23.2262C91.175 23.6787 91.3991 24.3463 91.3991 25.2244V31.4027C91.3991 31.5819 91.3095 31.6671 91.1347 31.6671H90.6598C90.4806 31.6671 90.391 31.5775 90.391 31.4027V25.65C90.391 24.8884 90.2476 24.3328 89.9519 23.9834C89.6607 23.6384 89.1903 23.4637 88.5451 23.4637C87.3713 23.4637 86.2288 23.84 85.1132 24.5882V31.3982C85.1132 31.5775 85.0236 31.6626 84.8489 31.6626H84.374H84.3785Z" fill="white"/>
<path d="M97.8636 31.9269C96.4658 31.9269 95.4174 31.5327 94.714 30.7396C94.0106 29.9466 93.6566 28.7683 93.6566 27.2092C93.6566 25.7307 94.0106 24.5837 94.7184 23.7683C95.4308 22.9529 96.4209 22.5452 97.7023 22.5452C98.7686 22.5452 99.5885 22.8543 100.158 23.4592C100.722 24.073 101.009 24.9466 101.009 26.0846C101.009 26.5551 100.982 26.909 100.937 27.142C100.901 27.3167 100.803 27.4063 100.637 27.4063H94.6692C94.6781 28.6384 94.9469 29.5479 95.4756 30.1348C96.0043 30.7217 96.8197 31.0129 97.9218 31.0129C98.7686 31.0129 99.5706 30.8696 100.332 30.5739C100.485 30.5156 100.592 30.4843 100.65 30.4843C100.7 30.4843 100.74 30.5022 100.771 30.5425C100.807 30.5828 100.825 30.6366 100.825 30.6948V30.9592C100.825 31.1474 100.758 31.2728 100.628 31.331C99.7812 31.7298 98.8537 31.9269 97.8457 31.9269M100.01 26.5954C100.019 26.4296 100.028 26.237 100.028 26.0129C100.028 25.1706 99.817 24.53 99.4093 24.0954C98.9971 23.6653 98.3923 23.4457 97.5948 23.4457C95.74 23.4457 94.7588 24.4941 94.6557 26.5954H100.01Z" fill="white"/>
<path d="M105.96 31.7702C105.266 31.7702 104.742 31.582 104.379 31.2146C104.011 30.8472 103.832 30.3096 103.832 29.6062V23.6922H102.443C102.268 23.6922 102.179 23.6026 102.179 23.4279V23.2531C102.179 23.1591 102.192 23.0874 102.233 23.0426C102.268 22.9933 102.34 22.9664 102.443 22.953L103.868 22.832L103.993 20.5112C104.002 20.4171 104.029 20.3499 104.069 20.3096C104.11 20.2693 104.173 20.2469 104.258 20.2469H104.576C104.755 20.2469 104.84 20.3365 104.84 20.5112V22.8186H107.394C107.569 22.8186 107.658 22.9082 107.658 23.0829V23.4368C107.658 23.616 107.569 23.7012 107.394 23.7012H104.84V29.5659C104.84 30.0453 104.943 30.3858 105.149 30.5829C105.36 30.7845 105.696 30.8831 106.184 30.8831C106.52 30.8831 106.82 30.8562 107.08 30.7935C107.206 30.7711 107.309 30.7487 107.389 30.7352C107.466 30.7173 107.519 30.7083 107.555 30.7083C107.685 30.7083 107.752 30.78 107.752 30.9189V31.1832C107.752 31.3849 107.685 31.5058 107.555 31.5506C107.098 31.7074 106.574 31.7791 105.974 31.7791" fill="white"/>
<path d="M111.699 31.6626C111.534 31.6626 111.422 31.582 111.363 31.4162L108.563 23.2307C108.514 23.1008 108.491 23.0157 108.491 22.9664C108.491 22.8633 108.563 22.8096 108.702 22.8096H109.267C109.419 22.8096 109.517 22.8857 109.567 23.0381L111.977 30.5022L114.11 23.0515C114.168 22.8902 114.28 22.8051 114.441 22.8051H115.091C115.257 22.8051 115.369 22.8902 115.422 23.0515L117.537 30.5515L120.001 23.0381C120.046 22.8857 120.145 22.8096 120.301 22.8096H120.83C120.969 22.8096 121.041 22.8633 121.041 22.9664C121.041 23.0157 121.018 23.1008 120.969 23.2307L118.102 31.4162C118.039 31.582 117.931 31.6626 117.766 31.6626H117.188C117.022 31.6626 116.91 31.582 116.852 31.4162L114.724 23.9341L112.613 31.4162C112.555 31.582 112.443 31.6626 112.282 31.6626H111.699Z" fill="white"/>
<path d="M126.31 31.9269C125.019 31.9269 124.016 31.5147 123.299 30.6859C122.582 29.857 122.228 28.7056 122.228 27.2271C122.228 25.7486 122.582 24.5972 123.299 23.7773C124.016 22.9529 125.019 22.5452 126.31 22.5452C127.6 22.5452 128.604 22.9574 129.32 23.7773C130.037 24.5972 130.391 25.7486 130.391 27.2271C130.391 28.7056 130.037 29.857 129.32 30.6859C128.604 31.5147 127.6 31.9269 126.31 31.9269ZM126.31 31.0129C128.339 31.0129 129.356 29.7495 129.356 27.2271C129.356 24.7047 128.339 23.4592 126.31 23.4592C124.28 23.4592 123.263 24.7181 123.263 27.2271C123.263 29.7361 124.28 31.0129 126.31 31.0129Z" fill="white"/>
<path d="M132.945 31.6627C132.77 31.6627 132.681 31.5731 132.681 31.3983V23.074C132.681 22.8992 132.77 22.8096 132.945 22.8096H133.281C133.469 22.8096 133.568 22.8992 133.581 23.074L133.671 24.0955C134.114 23.6026 134.553 23.2532 134.983 23.0471C135.414 22.841 135.897 22.7379 136.435 22.7379C136.623 22.7379 136.776 22.7424 136.892 22.7559C137.067 22.7648 137.156 22.8634 137.156 23.0381V23.4772C137.156 23.5265 137.139 23.5713 137.103 23.6071C137.067 23.6474 137.018 23.6698 136.964 23.6698C136.87 23.6698 136.78 23.6698 136.699 23.6609C136.614 23.6564 136.493 23.6519 136.328 23.6519C135.79 23.6519 135.311 23.755 134.894 23.9521C134.477 24.1492 134.074 24.4763 133.689 24.9198V31.3983C133.689 31.5775 133.599 31.6627 133.424 31.6627H132.945Z" fill="white"/>
<path d="M139.002 31.6627C138.827 31.6627 138.738 31.5731 138.738 31.3984V18.9029C138.738 18.7236 138.827 18.6385 139.002 18.6385H139.477C139.652 18.6385 139.741 18.7281 139.741 18.9029V26.7568L143.966 22.9889C144.083 22.8724 144.231 22.8097 144.405 22.8097H145.037C145.176 22.8097 145.248 22.8634 145.248 22.9665C145.248 23.0292 145.18 23.1143 145.05 23.2308L140.79 26.9987L145.4 31.2595C145.507 31.3536 145.557 31.4297 145.557 31.488C145.557 31.6045 145.49 31.6627 145.346 31.6627H144.589C144.446 31.6627 144.32 31.6089 144.199 31.5059L139.728 27.3347V31.3984C139.728 31.5776 139.638 31.6627 139.464 31.6627H138.989H139.002Z" fill="white"/>
</svg>
