<svg width="124" height="44" viewBox="0 0 124 44" fill="none" xmlns="http://www.w3.org/2000/svg">
<path d="M29.0013 37.7873C29.6718 37.7873 30.2026 38.0294 30.5875 38.5105C30.9755 38.9947 31.1679 39.6652 31.1679 40.5281C31.1679 41.3228 31.0189 42.0243 30.7209 42.6327H29.2558C29.4793 42.1298 29.6376 41.7077 29.7276 41.36C29.8177 41.0124 29.8642 40.6957 29.8642 40.4071C29.8642 40.0625 29.799 39.7956 29.6656 39.6124C29.5321 39.4293 29.3365 39.3362 29.0758 39.3362C28.9299 39.3362 28.7995 39.3765 28.6878 39.4572C28.5729 39.5379 28.4643 39.659 28.3587 39.8142C28.2532 39.9725 28.0856 40.2922 27.8559 40.7765C27.6417 41.2296 27.4368 41.5711 27.2413 41.7977C27.0457 42.0243 26.816 42.2074 26.5553 42.3409C26.2946 42.4775 25.9904 42.5458 25.6396 42.5458C24.9815 42.5458 24.4663 42.3223 24.0876 41.8784C23.712 41.4314 23.5226 40.8168 23.5226 40.0284C23.5226 39.6404 23.5692 39.2741 23.6592 38.9233C23.7492 38.5726 23.8796 38.2063 24.0472 37.8214L25.2733 38.3305C25.1119 38.7278 24.9971 39.0537 24.9319 39.3144C24.8667 39.5752 24.8357 39.8297 24.8357 40.0811C24.8357 40.3791 24.9039 40.6088 25.0436 40.7671C25.1833 40.9254 25.3633 41.0061 25.5868 41.0061C25.7265 41.0061 25.8476 40.9751 25.95 40.9099C26.0524 40.8447 26.1549 40.7423 26.2511 40.6026C26.3473 40.4629 26.5212 40.1277 26.7726 39.6031C27.1047 38.9078 27.4368 38.4329 27.7721 38.1753C28.1073 37.9176 28.514 37.7873 29.0013 37.7873Z" fill="white"/>
<path d="M31.0656 29.1082V30.9024L27.1607 31.9081C27.021 31.9453 26.7354 32.0074 26.2978 32.0974C25.8632 32.1875 25.5714 32.2402 25.4193 32.2526C25.6025 32.2744 25.8973 32.324 26.3009 32.4047C26.7075 32.4854 26.9962 32.5475 27.1669 32.5941L31.0625 33.5967V35.3877L23.6283 37.2843V35.7323L27.6853 34.7824C28.4334 34.6148 29.0821 34.4969 29.6315 34.4224C29.4391 34.4006 29.138 34.3541 28.7344 34.2827C28.3309 34.2113 28.0143 34.1399 27.7908 34.0778L23.6252 32.9945V31.5046L27.7908 30.4213C27.9771 30.3747 28.2626 30.3157 28.6444 30.2443C29.0262 30.1729 29.3553 30.1202 29.6315 30.0829C29.3677 30.0488 29.0386 29.996 28.6413 29.9215C28.2471 29.847 27.9274 29.7787 27.6822 29.7166L23.6252 28.7699V27.2179L31.0594 29.1082H31.0656Z" fill="white"/>
<path d="M31.0652 22.1241V26.4046H23.631V22.1241H24.9223V24.8277H26.5551V22.3104H27.8463V24.8277H29.7646V22.1241H31.0652Z" fill="white"/>
<path d="M27.2781 14.628C28.5011 14.628 29.4385 14.9756 30.0904 15.674C30.7422 16.3725 31.0682 17.3782 31.0682 18.6912V20.7957H23.634V18.4615C23.634 17.2478 23.9537 16.3042 24.5962 15.6337C25.2357 14.9632 26.1327 14.628 27.2812 14.628H27.2781ZM27.3185 16.2669C25.723 16.2669 24.9222 16.9715 24.9222 18.3808V19.2189H29.7645V18.5422C29.7645 17.0243 28.9481 16.2638 27.3185 16.2638V16.2669Z" fill="white"/>
<path d="M31.0652 9.12796V13.4084H23.631V9.12796H24.9223V11.8316H26.5551V9.31421H27.8463V11.8316H29.7646V9.12796H31.0652Z" fill="white"/>
<path d="M31.0652 1.20606V3.20817L25.4407 6.44259V6.48915C26.434 6.42396 27.1417 6.39292 27.567 6.39292H31.0652V7.80216H23.631V5.81246L29.1997 2.58425V2.55011C28.2343 2.59977 27.5515 2.62771 27.151 2.62771H23.631V1.20606H31.0652Z" fill="white"/>
<path d="M35.0511 1.06641H38.6052C40.2255 1.06641 41.4019 1.29611 42.1345 1.75861C42.867 2.22111 43.2333 2.95367 43.2333 3.95938C43.2333 4.64227 43.0719 5.201 42.7522 5.63867C42.4325 6.07634 42.0072 6.34018 41.4733 6.4271V6.5047C42.1966 6.66611 42.7212 6.9672 43.0409 7.41108C43.3606 7.85496 43.522 8.44162 43.522 9.17728C43.522 10.2202 43.1464 11.0335 42.3921 11.614C41.6378 12.1975 40.6166 12.4893 39.3253 12.4893H35.0511V1.06641ZM37.4722 5.59211H38.8783C39.5333 5.59211 40.0113 5.48967 40.3031 5.28791C40.598 5.08615 40.7439 4.74781 40.7439 4.2791C40.7439 3.84143 40.5825 3.52792 40.2627 3.33857C39.943 3.14922 39.4371 3.053 38.7418 3.053H37.4691V5.589L37.4722 5.59211ZM37.4722 7.51351V10.4903H39.0491C39.7164 10.4903 40.2069 10.363 40.5266 10.1085C40.8432 9.85396 41.0046 9.46285 41.0046 8.93517C41.0046 7.98843 40.3279 7.51351 38.9746 7.51351H37.4722Z" fill="white"/>
<path d="M51.7791 12.4893H45.1986V1.06641H51.7791V3.04989H47.6228V5.55796H51.4905V7.54145H47.6228V10.4872H51.7791V12.4893Z" fill="white"/>
<path d="M60.4518 9.31661C60.4518 10.3472 60.0794 11.1604 59.3375 11.7533C58.5956 12.3462 57.562 12.6442 56.2396 12.6442C55.0198 12.6442 53.9427 12.4145 53.0052 11.9551V9.70462C53.775 10.0492 54.43 10.2913 54.9639 10.431C55.4978 10.5706 55.9851 10.642 56.429 10.642C56.9598 10.642 57.3695 10.5396 57.652 10.3378C57.9376 10.1361 58.0772 9.83189 58.0772 9.43146C58.0772 9.20797 58.0152 9.00931 57.891 8.83238C57.7668 8.65856 57.5806 8.49094 57.3385 8.32953C57.0964 8.16812 56.6028 7.91048 55.8578 7.55662C55.1594 7.22759 54.6349 6.91408 54.2872 6.60988C53.9396 6.30879 53.6602 5.95493 53.4522 5.55451C53.2442 5.15409 53.1387 4.68538 53.1387 4.14838C53.1387 3.13646 53.4802 2.34182 54.1661 1.76447C54.8521 1.18711 55.7989 0.898438 57.0063 0.898438C57.5992 0.898438 58.1673 0.969831 58.7043 1.10951C59.2444 1.24919 59.8062 1.44785 60.396 1.70239L59.6138 3.58654C59.0054 3.33511 58.4994 3.16129 58.1021 3.06196C57.7048 2.96263 57.3105 2.91296 56.9256 2.91296C56.4662 2.91296 56.1155 3.0185 55.8703 3.23268C55.625 3.44686 55.504 3.72622 55.504 4.06767C55.504 4.28185 55.5536 4.46809 55.653 4.6264C55.7523 4.7847 55.9106 4.93991 56.1248 5.0889C56.3421 5.2379 56.8511 5.50484 57.6613 5.88975C58.7291 6.40191 59.4617 6.91098 59.8559 7.42625C60.2532 7.93842 60.4487 8.56854 60.4487 9.31351L60.4518 9.31661Z" fill="white"/>
<path d="M64.3289 12.4893V3.08093H61.2279V1.06641H69.8541V3.08093H66.7531V12.4893H64.3289Z" fill="white"/>
<path d="M39.8872 27.7171L37.137 18.7526H37.0656C37.1649 20.5747 37.2146 21.7914 37.2146 22.4029V27.7171H35.0511V16.2911H38.3476L41.0512 25.0259H41.0977L43.9659 16.2911H47.2624V27.714H45.0026V22.3067C45.0026 22.0522 45.0057 21.7573 45.015 21.4252C45.0213 21.093 45.0585 20.2053 45.1206 18.7681H45.0492L42.1035 27.714H39.8841L39.8872 27.7171Z" fill="white"/>
<path d="M57.0004 27.7168L56.1716 24.9976H52.006L51.1772 27.7168H48.5667L52.5989 16.2442H55.5602L59.6078 27.7168H56.9973H57.0004ZM55.5943 22.9645C54.8276 20.4999 54.3961 19.1061 54.2999 18.7833C54.2037 18.4605 54.1354 18.206 54.0919 18.0166C53.9212 18.684 53.4277 20.3322 52.6144 22.9645H55.5943Z" fill="white"/>
<path d="M71.0521 27.7171H67.9729L63.0033 19.0754H62.9319C63.0312 20.6026 63.0809 21.6921 63.0809 22.3409V27.7171H60.9174V16.2911H63.9718L68.9351 24.8489H68.991C68.9134 23.3652 68.873 22.316 68.873 21.6983V16.2911H71.0521V27.7171Z" fill="white"/>
<path d="M80.7896 27.7168L79.9608 24.9976H75.7952L74.9664 27.7168H72.3559L76.3881 16.2442H79.3493L83.397 27.7168H80.7865H80.7896ZM79.3835 22.9645C78.6168 20.4999 78.1853 19.1061 78.0891 18.7833C77.9928 18.4605 77.9246 18.206 77.8811 18.0166C77.7104 18.684 77.2168 20.3322 76.4036 22.9645H79.3835Z" fill="white"/>
<path d="M88.59 21.3015H93.1219V27.224C92.3863 27.463 91.6972 27.6306 91.0484 27.7268C90.3997 27.8231 89.7354 27.8727 89.0587 27.8727C87.3329 27.8727 86.0168 27.3668 85.1073 26.3517C84.1978 25.3398 83.7446 23.884 83.7446 21.9875C83.7446 20.0909 84.2723 18.7065 85.3277 17.6728C86.383 16.6423 87.845 16.127 89.7137 16.127C90.887 16.127 92.0169 16.3629 93.1064 16.8316L92.3025 18.7686C91.4675 18.3526 90.6015 18.1446 89.7013 18.1446C88.6552 18.1446 87.814 18.4954 87.1839 19.2C86.5538 19.9046 86.2372 20.8483 86.2372 22.0371C86.2372 23.226 86.4917 24.2224 86.9976 24.8773C87.5067 25.5323 88.2455 25.8582 89.2139 25.8582C89.7199 25.8582 90.2321 25.8054 90.7535 25.703V23.3191H88.59V21.3015Z" fill="white"/>
<path d="M102.053 27.7171H95.4722V16.2911H102.053V18.2746H97.8965V20.7826H101.764V22.7661H97.8965V25.7119H102.053V27.7171Z" fill="white"/>
<path d="M113.624 21.8939C113.624 23.7749 113.09 25.2152 112.019 26.2147C110.948 27.2142 109.402 27.714 107.381 27.714H104.147V16.2911H107.732C109.598 16.2911 111.044 16.7846 112.078 17.7686C113.108 18.7526 113.624 20.1277 113.624 21.8939ZM111.106 21.956C111.106 19.5038 110.023 18.2746 107.856 18.2746H106.568V25.715H107.608C109.942 25.715 111.109 24.4609 111.109 21.956H111.106Z" fill="white"/>
<path d="M39.903 33.3701C38.9904 33.3701 38.2857 33.7116 37.786 34.3976C37.2862 35.0835 37.0348 36.0365 37.0348 37.2626C37.0348 39.811 37.9909 41.0837 39.903 41.0837C40.7038 41.0837 41.6754 40.8819 42.8177 40.4815V42.5115C41.8802 42.9026 40.8342 43.0982 39.6764 43.0982C38.0157 43.0982 36.743 42.5953 35.8615 41.5865C34.9799 40.5777 34.5423 39.1312 34.5423 37.2471C34.5423 36.0582 34.7595 35.0184 35.191 34.1244C35.6225 33.2304 36.2433 32.5475 37.0534 32.0695C37.8636 31.5915 38.8134 31.3556 39.903 31.3556C40.9925 31.3556 42.1286 31.6225 43.246 32.1595L42.4638 34.1275C42.0354 33.9257 41.6071 33.7488 41.1756 33.5967C40.7442 33.4446 40.3189 33.3701 39.903 33.3701Z" fill="white"/>
<path d="M54.8183 37.2159C54.8183 39.1063 54.3496 40.559 53.4122 41.5771C52.4747 42.5952 51.1307 43.1012 49.38 43.1012C47.6293 43.1012 46.2853 42.5921 45.3479 41.5771C44.4104 40.5621 43.9417 39.1032 43.9417 37.2004C43.9417 35.2976 44.4104 33.848 45.351 32.8454C46.2915 31.8428 47.6386 31.34 49.3955 31.34C51.1524 31.34 52.4934 31.8459 53.4246 32.8547C54.3558 33.8667 54.8183 35.3194 54.8183 37.2159ZM46.4808 37.2159C46.4808 38.4917 46.7229 39.4539 47.2072 40.0996C47.6914 40.7452 48.4146 41.068 49.38 41.068C51.3138 41.068 52.2792 39.783 52.2792 37.2159C52.2792 34.6489 51.3169 33.3545 49.3955 33.3545C48.4302 33.3545 47.7038 33.6773 47.2165 34.3261C46.726 34.9748 46.4808 35.9371 46.4808 37.2128V37.2159Z" fill="white"/>
<path d="M61.5132 42.9426L58.763 33.9781H58.6916C58.791 35.8032 58.8406 37.0169 58.8406 37.6284V42.9426H56.6771V31.5197H59.9736L62.6772 40.2544H62.7238L65.5919 31.5197H68.8884V42.9426H66.6287V37.5353C66.6287 37.2808 66.6318 36.9859 66.6411 36.6537C66.6473 36.3216 66.6846 35.4339 66.7467 33.9967H66.6753L63.7295 42.9426H61.5101H61.5132Z" fill="white"/>
<path d="M79.1321 35.08C79.1321 36.3092 78.7472 37.2497 77.9805 37.9016C77.2107 38.5534 76.1181 38.8793 74.7026 38.8793H73.6628V42.9426H71.2416V31.5197H74.892C76.2764 31.5197 77.3318 31.8176 78.0519 32.4136C78.772 33.0096 79.1352 33.9005 79.1352 35.0831L79.1321 35.08ZM73.6628 36.8928H74.4605C75.2055 36.8928 75.7642 36.7469 76.1336 36.452C76.503 36.1571 76.6892 35.7287 76.6892 35.1669C76.6892 34.6051 76.534 34.1798 76.2236 33.9098C75.9132 33.6397 75.429 33.5031 74.7647 33.5031H73.6628V36.8959V36.8928Z" fill="white"/>
<path d="M87.1402 42.9424L86.3114 40.2233H82.1458L81.317 42.9424H78.7065L82.7387 31.4698H85.6999L89.7476 42.9424H87.1371H87.1402ZM85.7341 38.1901C84.9674 35.7255 84.5359 34.3318 84.4397 34.009C84.3435 33.6861 84.2752 33.4316 84.2317 33.2423C84.061 33.9096 83.5674 35.5579 82.7542 38.1901H85.7341Z" fill="white"/>
<path d="M101.065 42.9426H97.9857L93.0161 34.3009H92.9447C93.044 35.8281 93.0937 36.9176 93.0937 37.5663V42.9426H90.9302V31.5197H93.9846L98.9479 40.0775H99.0038C98.9262 38.5938 98.8859 37.5415 98.8859 36.9269V31.5197H101.065V42.9426Z" fill="white"/>
<path d="M103.409 42.9426V31.5197H105.83V42.9426H103.409Z" fill="white"/>
<path d="M114.751 42.9426H108.17V31.5197H114.751V33.5031H110.595V36.0112H114.462V37.9947H110.595V40.9404H114.751V42.9426Z" fill="white"/>
<path d="M123.566 39.7708C123.566 40.8014 123.194 41.6146 122.452 42.2075C121.71 42.8004 120.676 43.0984 119.354 43.0984C118.134 43.0984 117.057 42.8687 116.12 42.4093V40.1588C116.89 40.5034 117.544 40.7455 118.078 40.8852C118.612 41.0249 119.1 41.0963 119.544 41.0963C120.074 41.0963 120.484 40.9938 120.766 40.7921C121.052 40.5903 121.192 40.2861 121.192 39.8857C121.192 39.6622 121.13 39.4635 121.006 39.2866C120.881 39.1128 120.695 38.9452 120.453 38.7837C120.211 38.6223 119.717 38.3647 118.972 38.0108C118.274 37.6818 117.749 37.3683 117.402 37.0641C117.054 36.763 116.775 36.4092 116.567 36.0087C116.359 35.6083 116.253 35.1396 116.253 34.6026C116.253 33.5907 116.595 32.796 117.281 32.2187C117.967 31.6413 118.913 31.3527 120.121 31.3527C120.714 31.3527 121.282 31.4241 121.819 31.5637C122.359 31.7034 122.921 31.9021 123.51 32.1566L122.728 34.0408C122.12 33.7893 121.614 33.6155 121.217 33.5162C120.819 33.4169 120.425 33.3672 120.04 33.3672C119.581 33.3672 119.23 33.4727 118.985 33.6869C118.74 33.9011 118.618 34.1804 118.618 34.5219C118.618 34.7361 118.668 34.9223 118.767 35.0806C118.867 35.2389 119.025 35.3941 119.239 35.5431C119.457 35.6921 119.966 35.9591 120.776 36.344C121.844 36.8561 122.576 37.3652 122.97 37.8805C123.365 38.3957 123.563 39.0228 123.563 39.7677L123.566 39.7708Z" fill="white"/>
<path d="M9.93703 13.0137L0.261719 14.5937L6.12837 20.4603L17.3185 20.3982L9.93703 13.0137Z" fill="white"/>
<path d="M19.6561 18.0606L19.7181 6.87056L13.8515 1.00391L12.2715 10.6761L19.6561 18.0606Z" fill="white"/>
<path d="M12.2715 33.3299L13.8515 43.0053L19.7181 37.1386L19.6561 25.9454L12.2715 33.3299Z" fill="white"/>
<path d="M17.3185 23.611L6.12837 23.5489L0.261719 29.4125L9.93703 30.9924L17.3185 23.611Z" fill="white"/>
</svg>
