<svg width="152" height="34" viewBox="0 0 152 34" fill="none" xmlns="http://www.w3.org/2000/svg">
<path d="M0.556641 1.5024H15.8495C15.8495 6.59801 15.8495 11.6936 15.8495 16.7952H0.556641V1.5024Z" fill="white"/>
<path d="M17.4063 1.50261H32.6991C32.6991 6.59822 32.6991 11.6938 32.6991 16.7954C27.6035 16.7954 22.5079 16.7954 17.4123 16.7954C17.4123 11.6998 17.4123 6.60421 17.4123 1.50261H17.4063Z" fill="white"/>
<path d="M0.556641 18.3581C5.65225 18.3581 10.7479 18.3581 15.8495 18.3581C15.8495 23.4537 15.8495 28.5493 15.8495 33.6449H0.556641V18.3581Z" fill="white"/>
<path d="M17.4063 18.3581C22.5019 18.3581 27.5975 18.3581 32.6931 18.3581V33.6509H17.4063C17.4063 28.5553 17.4063 23.4597 17.4063 18.3641V18.3581Z" fill="white"/>
<path d="M129.935 8.29778C129.935 9.58516 129.935 10.8665 129.935 12.1599C129.947 12.8725 129.899 13.585 129.977 14.2975C130.025 14.7167 130.174 15.1778 130.569 15.3993C131.222 15.7646 132.06 15.6029 132.665 15.2017V17.4591C131.875 17.8004 131.001 17.9022 130.15 17.8423C129.342 17.7824 128.504 17.495 127.977 16.8483C127.366 16.1238 127.21 15.1358 127.198 14.2197C127.198 12.2497 127.198 10.2738 127.198 8.29778H123.175C123.175 11.3935 123.175 14.4892 123.175 17.5908H120.426C120.426 14.4951 120.426 11.3995 120.426 8.30377C119.785 8.28581 119.151 8.30377 118.51 8.2918C118.51 7.56129 118.51 6.8188 118.51 6.08829C119.145 6.07033 119.779 6.07632 120.414 6.08829C120.462 5.11228 120.312 4.10633 120.606 3.14829C120.857 2.29203 121.408 1.51362 122.163 1.0346C123.336 0.268162 124.851 0.196309 126.174 0.561564C126.186 1.34596 126.174 2.13036 126.174 2.92075C125.54 2.64531 124.803 2.46568 124.145 2.72914C123.624 2.93872 123.312 3.47762 123.228 4.01652C123.127 4.69912 123.193 5.38772 123.181 6.07632H127.204C127.216 5.2021 127.192 4.33387 127.216 3.45965C128.126 3.19619 129.031 2.90878 129.941 2.63933C129.941 3.78299 129.929 4.93265 129.941 6.0823C130.851 6.07033 131.755 6.0823 132.665 6.0823V8.32174C131.755 8.28581 130.845 8.30976 129.929 8.30377L129.935 8.29778Z" fill="white"/>
<path d="M63.2073 1.18972C63.7641 1.10589 64.3629 1.2975 64.7282 1.72862C65.1593 2.20166 65.2371 2.96211 64.9198 3.51897C64.5665 4.14769 63.7761 4.4351 63.0875 4.28541C62.375 4.15966 61.7762 3.49502 61.8061 2.75253C61.7882 1.97412 62.4349 1.27954 63.2013 1.18972H63.2073Z" fill="white"/>
<path d="M46.112 1.53146C47.3574 4.699 48.6148 7.86055 49.8603 11.0221C50.1777 11.8125 50.4771 12.6149 50.8124 13.3993C52.4171 9.44731 54.0398 5.50136 55.6325 1.53745C56.9139 1.51948 58.2013 1.53745 59.4827 1.53146C59.4827 6.88454 59.4827 12.2316 59.4827 17.5847C58.5546 17.5847 57.6325 17.5907 56.7043 17.5847C56.7163 13.6328 56.7043 9.68682 56.7043 5.73489C56.7043 5.55525 56.7044 5.38161 56.6864 5.20197C56.6325 5.2858 56.5846 5.36963 56.5427 5.45945C54.9499 9.5012 53.3272 13.531 51.7465 17.5787C51.0878 17.6027 50.4292 17.5787 49.7705 17.5907C48.1298 13.5489 46.5072 9.49522 44.8725 5.45346C44.8306 5.36963 44.7827 5.2858 44.7348 5.20796C44.6988 6.93843 44.7348 8.6689 44.7228 10.3994C44.7228 12.7945 44.7228 15.1896 44.7228 17.5907C43.8486 17.5907 42.9744 17.5907 42.1001 17.5907C42.1001 12.2376 42.1001 6.88454 42.1001 1.53146H46.112Z" fill="white"/>
<path d="M70.7818 6.07C72.1111 5.69277 73.5421 5.70475 74.8714 6.08198C75.1469 6.15982 75.4103 6.2676 75.6558 6.41131C75.6379 7.28553 75.6558 8.16573 75.6498 9.04593C74.7637 8.36932 73.638 7.93819 72.5063 8.0819C71.6081 8.16573 70.7578 8.62679 70.2189 9.35131C69.5303 10.2495 69.3687 11.441 69.4884 12.5368C69.5782 13.3991 69.9315 14.2553 70.6021 14.8242C71.2967 15.4409 72.2727 15.6624 73.1769 15.5906C74.0751 15.4888 74.9193 15.1056 75.6498 14.5787C75.6558 15.411 75.6498 16.2433 75.6558 17.0696C74.5301 17.7402 73.1829 17.9138 71.8895 17.848C70.5722 17.7761 69.2549 17.2791 68.3028 16.351C67.2669 15.3511 66.7041 13.926 66.6382 12.5009C66.5724 11.0159 66.8717 9.47107 67.728 8.2316C68.4465 7.17176 69.5603 6.42328 70.7818 6.07599V6.07Z" fill="white"/>
<path d="M95.7869 8.76465C95.3079 7.70481 94.4456 6.81263 93.3798 6.33361C92.1523 5.77674 90.7571 5.6989 89.4398 5.87255C88.0507 6.0462 86.7034 6.69886 85.8172 7.8066C85.0149 8.79459 84.6257 10.064 84.5478 11.3214C84.434 12.8124 84.6855 14.3812 85.5597 15.6207C86.3022 16.6925 87.4758 17.423 88.7393 17.6984C89.7931 17.92 90.9068 17.92 91.9607 17.6984C93.2002 17.441 94.3558 16.7583 95.1222 15.7464C95.8707 14.7944 96.2479 13.5908 96.3318 12.3992C96.4216 11.1717 96.2958 9.90233 95.7869 8.76465ZM93.1283 14.0459C92.8648 14.6387 92.3858 15.1416 91.7751 15.3812C91.0625 15.6506 90.2661 15.6686 89.5296 15.477C88.7872 15.2853 88.1525 14.7464 87.8052 14.0579C87.3681 13.1776 87.3022 12.1477 87.386 11.1777C87.4698 10.2975 87.7752 9.38738 88.4518 8.77663C88.9428 8.32155 89.6015 8.10001 90.2602 8.05809C91.0865 8.0042 91.9667 8.24371 92.5655 8.84249C93.2002 9.47121 93.4457 10.3754 93.5175 11.2436C93.5654 12.1897 93.5295 13.1776 93.1283 14.0519V14.0459Z" fill="white"/>
<path d="M100.858 5.89674C102.134 5.67519 103.463 5.83686 104.666 6.29194C104.666 7.13621 104.666 7.98049 104.666 8.82477C103.822 8.24395 102.798 7.93259 101.774 7.96852C101.259 7.98648 100.697 8.20803 100.457 8.69304C100.271 9.17805 100.397 9.81276 100.858 10.1002C101.637 10.6211 102.571 10.8427 103.379 11.3097C104.014 11.669 104.637 12.136 104.954 12.8126C105.559 14.0761 105.301 15.7467 104.235 16.6867C103.217 17.6388 101.75 17.9023 100.403 17.8484C99.4451 17.7885 98.4811 17.5969 97.6069 17.2077C97.6069 16.3215 97.6069 15.4353 97.6069 14.5431C98.3494 15.082 99.1996 15.4652 100.104 15.6209C100.733 15.7227 101.415 15.7287 102.002 15.4473C102.565 15.1658 102.667 14.3695 102.331 13.8845C102.02 13.5072 101.559 13.3036 101.128 13.1C100.319 12.7348 99.4631 12.4294 98.7505 11.8845C98.2476 11.4953 97.8703 10.9444 97.7206 10.3217C97.4991 9.40559 97.571 8.37569 98.1039 7.57332C98.7146 6.63923 99.7685 6.08236 100.846 5.89076L100.858 5.89674Z" fill="white"/>
<path d="M117.834 9.10037C117.409 7.9567 116.565 6.96872 115.469 6.42383C114.211 5.78912 112.756 5.69931 111.379 5.86697C110.271 6.01067 109.182 6.42982 108.337 7.1723C107.307 8.0585 106.697 9.36982 106.523 10.7051C106.349 12.0404 106.409 13.4535 106.954 14.7049C107.475 15.9324 108.511 16.9324 109.75 17.4174C110.972 17.9024 112.337 17.9563 113.625 17.7467C114.948 17.5312 116.193 16.8366 117.014 15.7708C117.888 14.663 118.259 13.2379 118.259 11.8488C118.277 10.9147 118.157 9.97459 117.834 9.10037ZM115.349 12.9984C115.241 13.6092 115.032 14.208 114.63 14.693C114.229 15.172 113.636 15.4654 113.026 15.5612C112.367 15.657 111.672 15.6091 111.056 15.3456C110.391 15.0642 109.87 14.4894 109.601 13.8247C109.277 13.0343 109.212 12.1661 109.277 11.3218C109.337 10.5075 109.571 9.66921 110.11 9.02852C110.607 8.43573 111.361 8.1064 112.122 8.07047C112.9 8.01658 113.726 8.19023 114.325 8.72314C114.876 9.17821 115.181 9.86082 115.319 10.5554C115.481 11.3578 115.481 12.202 115.349 13.0104V12.9984Z" fill="white"/>
<path d="M81.8172 6.2556C82.5776 5.80053 83.5416 5.75861 84.3739 6.04004C84.3739 6.95617 84.3739 7.87829 84.3739 8.79442C83.829 8.44114 83.1524 8.29145 82.5117 8.35731C81.7273 8.44713 81.1106 9.04591 80.7873 9.7345C80.44 10.465 80.3741 11.2853 80.3921 12.0817C80.3921 13.914 80.3921 15.7522 80.3921 17.5845H77.6796C77.6796 13.7523 77.6796 9.91414 77.6796 6.08195C78.5837 6.06998 79.4939 6.07596 80.398 6.08195C80.398 6.74061 80.398 7.39927 80.398 8.05792C80.6914 7.33939 81.1286 6.6448 81.8231 6.2556H81.8172Z" fill="white"/>
<path d="M62.0631 6.08245C62.9733 6.08245 63.8894 6.07048 64.8055 6.08245C64.7935 9.91464 64.8055 13.7468 64.8055 17.585H62.0691C62.0691 13.7528 62.0691 9.91464 62.0691 6.08245H62.0631Z" fill="white"/>
<path d="M42.046 33.0876V31.3991C42.1957 31.5368 42.3753 31.6625 42.5849 31.7703C42.7945 31.8781 43.016 31.9739 43.2496 32.0517C43.4831 32.1296 43.7166 32.1835 43.9501 32.2254C44.1837 32.2673 44.3992 32.2853 44.5968 32.2853C45.2854 32.2853 45.8004 32.1715 46.1357 31.938C46.471 31.7104 46.6446 31.3751 46.6446 30.938C46.6446 30.7045 46.5907 30.5009 46.477 30.3272C46.3632 30.1536 46.2075 29.9979 46.0039 29.8542C45.8004 29.7105 45.5668 29.5728 45.2914 29.4411C45.016 29.3093 44.7226 29.1716 44.4112 29.0339C44.0759 28.8542 43.7645 28.6746 43.4711 28.489C43.1777 28.3034 42.9322 28.0998 42.7167 27.8782C42.5011 27.6567 42.3334 27.4052 42.2137 27.1238C42.0939 26.8424 42.0281 26.513 42.0281 26.1358C42.0281 25.6687 42.1298 25.2676 42.3394 24.9263C42.549 24.585 42.8244 24.3035 43.1657 24.076C43.507 23.8544 43.8962 23.6868 44.3334 23.579C44.7705 23.4712 45.2136 23.4173 45.6686 23.4173C46.7045 23.4173 47.459 23.5371 47.932 23.7706V25.3933C47.3692 24.9861 46.6506 24.7885 45.7704 24.7885C45.5249 24.7885 45.2854 24.8125 45.0459 24.8604C44.8064 24.9083 44.5908 24.9802 44.3992 25.0879C44.2076 25.1957 44.0519 25.3274 43.9322 25.4951C43.8124 25.6628 43.7525 25.8604 43.7525 26.0939C43.7525 26.3154 43.8004 26.507 43.8903 26.6687C43.9801 26.8304 44.1178 26.9741 44.2914 27.1118C44.4711 27.2435 44.6866 27.3753 44.9381 27.501C45.1956 27.6268 45.489 27.7645 45.8243 27.9082C46.1716 28.0878 46.4949 28.2734 46.8003 28.471C47.1057 28.6686 47.3751 28.8842 47.6087 29.1237C47.8422 29.3632 48.0218 29.6267 48.1595 29.9201C48.2973 30.2135 48.3631 30.5428 48.3631 30.914C48.3631 31.417 48.2613 31.8362 48.0578 32.1835C47.8542 32.5308 47.5847 32.8062 47.2434 33.0217C46.9021 33.2373 46.5069 33.393 46.0638 33.4888C45.6207 33.5846 45.1477 33.6325 44.6507 33.6325C44.483 33.6325 44.2795 33.6205 44.04 33.5966C43.8004 33.5726 43.549 33.5367 43.2975 33.4888C43.046 33.4409 42.8065 33.381 42.5789 33.3152C42.3514 33.2493 42.1718 33.1655 42.034 33.0816L42.046 33.0876Z" fill="white"/>
<path d="M53.1357 33.6449C52.0459 33.6449 51.1777 33.3156 50.525 32.6569C49.8724 31.9982 49.549 31.124 49.549 30.0343C49.549 28.8487 49.8903 27.9206 50.5669 27.2559C51.2436 26.5913 52.1597 26.256 53.3093 26.256C54.459 26.256 55.2733 26.5793 55.8901 27.226C56.5068 27.8727 56.8122 28.7708 56.8122 29.9205C56.8122 31.0701 56.4829 31.9503 55.8182 32.627C55.1536 33.3036 54.2614 33.6449 53.1417 33.6449H53.1357ZM53.2135 27.5314C52.5908 27.5314 52.0938 27.7469 51.7346 28.184C51.3753 28.6211 51.1897 29.2199 51.1897 29.9923C51.1897 30.7648 51.3753 31.3156 51.7405 31.7408C52.1058 32.1659 52.5968 32.3815 53.2135 32.3815C53.8303 32.3815 54.3273 32.1719 54.6626 31.7528C54.9979 31.3336 55.1715 30.7408 55.1715 29.9684C55.1715 29.196 55.0039 28.5912 54.6626 28.1721C54.3273 27.7469 53.8423 27.5373 53.2135 27.5373V27.5314Z" fill="white"/>
<path d="M60.0396 33.483H58.4349V23.0343H60.0396V33.483Z" fill="white"/>
<path d="M68.2788 33.4831H66.6801V32.3694H66.6501C66.1831 33.2256 65.4645 33.6508 64.4885 33.6508C62.8179 33.6508 61.9856 32.6508 61.9856 30.6449V26.4295H63.5844V30.4832C63.5844 31.7526 64.0754 32.3873 65.0514 32.3873C65.5244 32.3873 65.9136 32.2137 66.219 31.8664C66.5244 31.5191 66.6801 31.0581 66.6801 30.4952V26.4355H68.2788V33.4951V33.4831Z" fill="white"/>
<path d="M74.0805 33.4051C73.7691 33.5608 73.356 33.6386 72.847 33.6386C71.4758 33.6386 70.7932 32.9799 70.7932 31.6686V27.6807H69.6136V26.4233H70.7932V24.7886L72.3919 24.3336V26.4233H74.0805V27.6807H72.3919V31.2076C72.3919 31.6267 72.4698 31.9261 72.6195 32.1057C72.7691 32.2854 73.0266 32.3752 73.3799 32.3752C73.6494 32.3752 73.8829 32.2973 74.0805 32.1416V33.4111V33.4051Z" fill="white"/>
<path d="M76.2663 24.9382C76.0028 24.9382 75.7813 24.8544 75.5956 24.6807C75.41 24.5131 75.3142 24.2975 75.3142 24.0341C75.3142 23.7706 75.41 23.555 75.5956 23.3814C75.7813 23.2077 76.0028 23.1179 76.2663 23.1179C76.5297 23.1179 76.7692 23.2077 76.9549 23.3814C77.1405 23.555 77.2363 23.7766 77.2363 24.0341C77.2363 24.2796 77.1405 24.4951 76.9549 24.6747C76.7692 24.8544 76.5357 24.9382 76.2663 24.9382ZM77.0567 33.4768H75.4579V26.4172H77.0567V33.4768Z" fill="white"/>
<path d="M82.2781 33.6449C81.1883 33.6449 80.3201 33.3156 79.6674 32.6569C79.0148 31.9982 78.6914 31.124 78.6914 30.0343C78.6914 28.8487 79.0327 27.9206 79.7094 27.2559C80.386 26.5913 81.3021 26.256 82.4518 26.256C83.6014 26.256 84.4157 26.5793 85.0325 27.226C85.6492 27.8727 85.9546 28.7708 85.9546 29.9205C85.9546 31.0701 85.6253 31.9503 84.9606 32.627C84.296 33.3036 83.4038 33.6449 82.2841 33.6449H82.2781ZM82.3559 27.5314C81.7332 27.5314 81.2362 27.7469 80.877 28.184C80.5177 28.6211 80.3321 29.2199 80.3321 29.9923C80.3321 30.7648 80.5177 31.3156 80.8829 31.7408C81.2482 32.1659 81.7392 32.3815 82.3559 32.3815C82.9727 32.3815 83.4697 32.1719 83.805 31.7528C84.1403 31.3336 84.314 30.7408 84.314 29.9684C84.314 29.196 84.1463 28.5912 83.805 28.1721C83.4697 27.7469 82.9847 27.5373 82.3559 27.5373V27.5314Z" fill="white"/>
<path d="M93.8643 33.4826H92.2656V29.5067C92.2656 28.1894 91.7986 27.5308 90.8645 27.5308C90.3794 27.5308 89.9783 27.7164 89.6609 28.0757C89.3436 28.4409 89.1879 28.902 89.1879 29.4588V33.4826H87.5831V26.423H89.1879V27.5966H89.2178C89.7447 26.7045 90.5112 26.2614 91.5051 26.2614C92.2716 26.2614 92.8584 26.5128 93.2656 27.0098C93.6667 27.5068 93.8703 28.2313 93.8703 29.1714V33.4886L93.8643 33.4826Z" fill="white"/>
<path d="M95.3732 33.2614V31.7824C95.972 32.2375 96.6307 32.465 97.3492 32.465C98.3132 32.465 98.7982 32.1776 98.7982 31.6088C98.7982 31.4471 98.7563 31.3094 98.6725 31.2016C98.5887 31.0878 98.4809 30.986 98.3372 30.9022C98.1935 30.8184 98.0318 30.7345 97.8402 30.6687C97.6486 30.6028 97.439 30.519 97.1995 30.4352C96.9121 30.3214 96.6486 30.1956 96.4151 30.0699C96.1816 29.9442 95.99 29.7945 95.8343 29.6328C95.6786 29.4711 95.5648 29.2855 95.487 29.0759C95.4092 28.8664 95.3672 28.6268 95.3672 28.3514C95.3672 28.0101 95.4451 27.7107 95.6068 27.4532C95.7684 27.1958 95.984 26.9742 96.2534 26.8006C96.5229 26.6209 96.8343 26.4892 97.1756 26.3994C97.5229 26.3096 97.8761 26.2677 98.2414 26.2677C98.8941 26.2677 99.4749 26.3694 99.9898 26.5611V27.9622C99.4928 27.6209 98.924 27.4532 98.2833 27.4532C98.0797 27.4532 97.9001 27.4712 97.7384 27.5131C97.5767 27.555 97.433 27.6149 97.3193 27.6868C97.2055 27.7586 97.1157 27.8484 97.0498 27.9502C96.9839 28.052 96.954 28.1658 96.954 28.2915C96.954 28.4412 96.9839 28.5729 97.0498 28.6747C97.1157 28.7825 97.2115 28.8723 97.3372 28.9562C97.463 29.034 97.6127 29.1118 97.7923 29.1777C97.9719 29.2436 98.1695 29.3154 98.4031 29.3933C98.7084 29.519 98.9779 29.6448 99.2174 29.7705C99.4569 29.8962 99.6665 30.0459 99.8341 30.2076C100.002 30.3693 100.134 30.5609 100.229 30.7705C100.319 30.986 100.367 31.2375 100.367 31.5309C100.367 31.8902 100.283 32.2015 100.122 32.471C99.9599 32.7404 99.7383 32.956 99.4569 33.1356C99.1755 33.3153 98.8641 33.441 98.5048 33.5248C98.1456 33.6087 97.7624 33.6506 97.3672 33.6506C96.5947 33.6506 95.9241 33.5248 95.3613 33.2674L95.3732 33.2614Z" fill="white"/>
<path d="M107.595 29.8963V33.483H105.96V23.5972H108.96C110.092 23.5972 110.978 23.8606 111.601 24.3876C112.223 24.9145 112.541 25.663 112.541 26.621C112.541 27.579 112.217 28.3694 111.565 28.9802C110.912 29.5909 110.032 29.8963 108.918 29.8963H107.595ZM107.595 24.9504V28.561H108.655C109.355 28.561 109.894 28.3994 110.259 28.07C110.625 27.7407 110.81 27.2856 110.81 26.6929C110.81 25.5312 110.133 24.9504 108.786 24.9504H107.595Z" fill="white"/>
<path d="M119.043 33.4826H117.492V32.3809H117.462C116.977 33.2252 116.259 33.6503 115.319 33.6503C114.624 33.6503 114.079 33.4647 113.69 33.0874C113.295 32.7102 113.103 32.2132 113.103 31.5905C113.103 30.2552 113.87 29.4828 115.403 29.2612L117.498 28.9678C117.498 27.9619 117.019 27.4589 116.067 27.4589C115.229 27.4589 114.469 27.7463 113.792 28.3271V26.926C114.534 26.4829 115.397 26.2614 116.373 26.2614C118.157 26.2614 119.049 27.1416 119.049 28.896V33.4886L119.043 33.4826ZM117.498 30.0157L116.019 30.2253C115.558 30.2852 115.211 30.3989 114.983 30.5606C114.75 30.7223 114.636 31.0097 114.636 31.4168C114.636 31.7162 114.744 31.9617 114.96 32.1533C115.175 32.3449 115.457 32.4408 115.816 32.4408C116.301 32.4408 116.708 32.2671 117.025 31.9258C117.343 31.5845 117.504 31.1534 117.504 30.6324V30.0217L117.498 30.0157Z" fill="white"/>
<path d="M125.085 27.9446C124.893 27.7949 124.612 27.717 124.253 27.717C123.78 27.717 123.384 27.9326 123.067 28.3577C122.75 28.7828 122.594 29.3637 122.594 30.1002V33.4773H120.995V26.4177H122.594V27.8727H122.624C122.78 27.3757 123.019 26.9865 123.342 26.7111C123.666 26.4356 124.031 26.2919 124.426 26.2919C124.714 26.2919 124.935 26.3338 125.091 26.4237V27.9386L125.085 27.9446Z" fill="white"/>
<path d="M130.348 33.4051C130.037 33.5608 129.624 33.6386 129.115 33.6386C127.743 33.6386 127.061 32.9799 127.061 31.6686V27.6807H125.881V26.4233H127.061V24.7886L128.66 24.3336V26.4233H130.348V27.6807H128.66V31.2076C128.66 31.6267 128.737 31.9261 128.887 32.1057C129.037 32.2854 129.294 32.3752 129.647 32.3752C129.917 32.3752 130.15 32.2973 130.348 32.1416V33.4111V33.4051Z" fill="white"/>
<path d="M138.012 33.4826H136.414V29.5067C136.414 28.1894 135.946 27.5308 135.012 27.5308C134.527 27.5308 134.12 27.7164 133.809 28.0757C133.491 28.4409 133.336 28.902 133.336 29.4588V33.4826H131.731V26.423H133.336V27.5966H133.366C133.893 26.7045 134.659 26.2614 135.653 26.2614C136.419 26.2614 137.006 26.5128 137.407 27.0098C137.815 27.5068 138.012 28.2313 138.012 29.1714V33.4886V33.4826Z" fill="white"/>
<path d="M145.94 30.3875H141.132C141.15 31.0402 141.353 31.5432 141.737 31.8965C142.12 32.2497 142.647 32.4294 143.317 32.4294C144.072 32.4294 144.76 32.2018 145.389 31.7528V33.0401C144.749 33.4473 143.898 33.6449 142.838 33.6449C141.779 33.6449 140.988 33.3215 140.395 32.6809C139.803 32.0402 139.509 31.136 139.509 29.9744C139.509 28.8786 139.833 27.9804 140.485 27.2918C141.138 26.5973 141.94 26.256 142.91 26.256C143.88 26.256 144.623 26.5673 145.15 27.1841C145.677 27.8068 145.94 28.6631 145.94 29.7708V30.3875ZM144.395 29.2558C144.395 28.681 144.257 28.2319 143.988 27.9146C143.719 27.5972 143.353 27.4356 142.886 27.4356C142.419 27.4356 142.036 27.6032 141.719 27.9385C141.401 28.2738 141.204 28.711 141.132 29.2558H144.401H144.395Z" fill="white"/>
<path d="M151.557 27.9446C151.365 27.7949 151.084 27.717 150.724 27.717C150.251 27.717 149.856 27.9326 149.539 28.3577C149.222 28.7828 149.066 29.3637 149.066 30.1002V33.4773H147.467V26.4177H149.066V27.8727H149.096C149.251 27.3757 149.491 26.9865 149.814 26.7111C150.138 26.4356 150.503 26.2919 150.898 26.2919C151.186 26.2919 151.407 26.3338 151.563 26.4237V27.9386L151.557 27.9446Z" fill="white"/>
</svg>
